<mxfile host="app.diagrams.net" modified="2021-12-08T05:23:47.347Z" agent="5.0 (X11)" etag="S1Zsrw_dRVw7Y4e0uR2o" version="15.9.1" type="github">
  <diagram name="Page-1" id="55a83fd1-7818-8e21-69c5-c3457e3827bb">
    <mxGraphModel dx="1422" dy="719" grid="1" gridSize="10" guides="1" tooltips="1" connect="1" arrows="1" fold="1" page="1" pageScale="1" pageWidth="1100" pageHeight="850" background="none" math="0" shadow="0">
      <root>
        <mxCell id="0" />
        <mxCell id="1" parent="0" />
        <mxCell id="69ecfefc5c41e42c-1" value="" style="image;html=1;labelBackgroundColor=#ffffff;image=img/lib/clip_art/networking/Wireless_Router_128x128.png;rounded=1;shadow=0;comic=0;strokeWidth=2;fontSize=22" parent="1" vertex="1">
          <mxGeometry x="470" y="465" width="80" height="80" as="geometry" />
        </mxCell>
        <mxCell id="69ecfefc5c41e42c-2" value="Internet" style="image;html=1;labelBackgroundColor=#ffffff;image=img/lib/clip_art/networking/Cloud_128x128.png;rounded=1;shadow=0;comic=0;strokeWidth=2;fontSize=22;labelPosition=center;verticalLabelPosition=top;align=center;verticalAlign=bottom;" parent="1" vertex="1">
          <mxGeometry x="470" y="140" width="80" height="80" as="geometry" />
        </mxCell>
        <mxCell id="69ecfefc5c41e42c-19" style="edgeStyle=none;rounded=0;html=1;labelBackgroundColor=none;endArrow=none;strokeWidth=2;fontFamily=Verdana;fontSize=22" parent="1" source="69ecfefc5c41e42c-1" target="69ecfefc5c41e42c-2" edge="1">
          <mxGeometry relative="1" as="geometry">
            <mxPoint x="510" y="290" as="sourcePoint" />
          </mxGeometry>
        </mxCell>
        <mxCell id="69ecfefc5c41e42c-5" value="&lt;div&gt;host-63&lt;/div&gt;&lt;div&gt;192.168.20.188&lt;/div&gt;" style="image;html=1;labelBackgroundColor=#ffffff;image=img/lib/clip_art/computers/Monitor_Tower_128x128.png;rounded=1;shadow=0;comic=0;strokeWidth=2;fontSize=22" parent="1" vertex="1">
          <mxGeometry x="150" y="640" width="80" height="80" as="geometry" />
        </mxCell>
        <mxCell id="69ecfefc5c41e42c-6" value="M1005 MFP&lt;br&gt;(shared)" style="image;html=1;labelBackgroundColor=#ffffff;image=img/lib/clip_art/computers/Printer_128x128.png;rounded=1;shadow=0;comic=0;strokeWidth=2;fontSize=22" parent="1" vertex="1">
          <mxGeometry x="150" y="440" width="80" height="80" as="geometry" />
        </mxCell>
        <mxCell id="69ecfefc5c41e42c-7" value="aspire&lt;br&gt;192.168.20.174" style="image;html=1;labelBackgroundColor=#ffffff;image=img/lib/clip_art/computers/Workstation_128x128.png;rounded=1;shadow=0;comic=0;strokeWidth=2;fontSize=22" parent="1" vertex="1">
          <mxGeometry x="590" y="670" width="80" height="80" as="geometry" />
        </mxCell>
        <mxCell id="69ecfefc5c41e42c-8" value="asus&lt;br&gt;192.168.20.39" style="image;html=1;labelBackgroundColor=#ffffff;image=img/lib/clip_art/telecommunication/iPhone_128x128.png;rounded=1;shadow=0;comic=0;strokeWidth=2;fontSize=22" parent="1" vertex="1">
          <mxGeometry x="810" y="600" width="80" height="80" as="geometry" />
        </mxCell>
        <mxCell id="69ecfefc5c41e42c-10" value="intel&lt;br&gt;192.168.20.246" style="image;html=1;labelBackgroundColor=#ffffff;image=img/lib/clip_art/computers/Netbook_128x128.png;rounded=1;shadow=0;comic=0;strokeWidth=2;fontSize=22" parent="1" vertex="1">
          <mxGeometry x="360" y="680" width="80" height="80" as="geometry" />
        </mxCell>
        <mxCell id="69ecfefc5c41e42c-13" value="" style="html=1;fillColor=#CCCCCC;strokeColor=#6881B3;gradientColor=none;gradientDirection=north;strokeWidth=2;shape=mxgraph.networks.comm_link_edge;html=1;labelBackgroundColor=none;endArrow=none;fontFamily=Verdana;fontSize=22;fontColor=#000000;" parent="1" source="69ecfefc5c41e42c-10" target="69ecfefc5c41e42c-1" edge="1">
          <mxGeometry width="100" height="100" relative="1" as="geometry">
            <mxPoint x="330" y="491.9565217391305" as="sourcePoint" />
            <mxPoint x="480" y="518.0434782608695" as="targetPoint" />
          </mxGeometry>
        </mxCell>
        <mxCell id="69ecfefc5c41e42c-16" value="" style="html=1;fillColor=#CCCCCC;strokeColor=#6881B3;gradientColor=none;gradientDirection=north;strokeWidth=2;shape=mxgraph.networks.comm_link_edge;html=1;labelBackgroundColor=none;endArrow=none;fontFamily=Verdana;fontSize=22;fontColor=#000000;" parent="1" source="69ecfefc5c41e42c-8" target="69ecfefc5c41e42c-1" edge="1">
          <mxGeometry width="100" height="100" relative="1" as="geometry">
            <mxPoint x="360" y="521.9565217391305" as="sourcePoint" />
            <mxPoint x="510" y="548.0434782608695" as="targetPoint" />
          </mxGeometry>
        </mxCell>
        <mxCell id="69ecfefc5c41e42c-17" value="" style="html=1;fillColor=#CCCCCC;strokeColor=#6881B3;gradientColor=none;gradientDirection=north;strokeWidth=2;shape=mxgraph.networks.comm_link_edge;html=1;labelBackgroundColor=none;endArrow=none;fontFamily=Verdana;fontSize=22;fontColor=#000000;exitX=0;exitY=0.5;exitDx=0;exitDy=0;" parent="1" source="lngHxSVvQYg_hS9stmWo-6" target="69ecfefc5c41e42c-1" edge="1">
          <mxGeometry width="100" height="100" relative="1" as="geometry">
            <mxPoint x="820" y="412" as="sourcePoint" />
            <mxPoint x="520" y="558.0434782608695" as="targetPoint" />
          </mxGeometry>
        </mxCell>
        <mxCell id="lngHxSVvQYg_hS9stmWo-2" style="edgeStyle=none;rounded=0;html=1;labelBackgroundColor=none;endArrow=none;strokeWidth=2;fontFamily=Verdana;fontSize=22;entryX=1;entryY=0.25;entryDx=0;entryDy=0;exitX=0;exitY=1;exitDx=0;exitDy=0;" edge="1" parent="1" source="69ecfefc5c41e42c-1" target="69ecfefc5c41e42c-5">
          <mxGeometry relative="1" as="geometry">
            <mxPoint x="500" y="455" as="sourcePoint" />
            <mxPoint x="500" y="210" as="targetPoint" />
          </mxGeometry>
        </mxCell>
        <mxCell id="lngHxSVvQYg_hS9stmWo-3" style="edgeStyle=none;rounded=0;html=1;labelBackgroundColor=none;endArrow=none;strokeWidth=2;fontFamily=Verdana;fontSize=22;entryX=0;entryY=0;entryDx=0;entryDy=0;exitX=1;exitY=1;exitDx=0;exitDy=0;" edge="1" parent="1" source="69ecfefc5c41e42c-1" target="69ecfefc5c41e42c-7">
          <mxGeometry relative="1" as="geometry">
            <mxPoint x="480" y="555" as="sourcePoint" />
            <mxPoint x="240" y="670" as="targetPoint" />
          </mxGeometry>
        </mxCell>
        <mxCell id="lngHxSVvQYg_hS9stmWo-4" style="edgeStyle=none;rounded=0;html=1;labelBackgroundColor=none;endArrow=none;strokeWidth=2;fontFamily=Verdana;fontSize=22;entryX=0.5;entryY=0;entryDx=0;entryDy=0;" edge="1" parent="1" source="69ecfefc5c41e42c-6" target="69ecfefc5c41e42c-5">
          <mxGeometry relative="1" as="geometry">
            <mxPoint x="480" y="555" as="sourcePoint" />
            <mxPoint x="240" y="670" as="targetPoint" />
          </mxGeometry>
        </mxCell>
        <mxCell id="lngHxSVvQYg_hS9stmWo-6" value="honor&lt;br&gt;192.168.20.40" style="image;html=1;labelBackgroundColor=#ffffff;image=img/lib/clip_art/telecommunication/iPhone_128x128.png;rounded=1;shadow=0;comic=0;strokeWidth=2;fontSize=22" vertex="1" parent="1">
          <mxGeometry x="810" y="370" width="80" height="80" as="geometry" />
        </mxCell>
      </root>
    </mxGraphModel>
  </diagram>
</mxfile>
